<svg width="54" height="54" fill="none" xmlns="http://www.w3.org/2000/svg"><g clip-path="url(#clip0_1862_4093)"><path d="M24.52 37.896a2.236 2.236 0 002.23 2.229 2.236 2.236 0 002.23-2.23 2.236 2.236 0 00-2.23-2.228 2.236 2.236 0 00-2.23 2.229zm0-31.209v8.917h4.46v-4.28c7.556 1.092 13.374 7.557 13.374 15.426 0 8.627-6.977 15.604-15.604 15.604-8.627 0-15.604-6.977-15.604-15.604a15.42 15.42 0 013.522-9.853L26.75 28.98l3.143-3.143-15.158-15.158v.044c-4.882 3.656-8.047 9.452-8.047 16.028 0 11.079 8.96 20.063 20.062 20.063 11.079 0 20.063-8.984 20.063-20.063 0-11.079-8.984-20.063-20.063-20.063h-2.23zM40.126 26.75a2.236 2.236 0 00-2.23-2.23 2.236 2.236 0 00-2.228 2.23 2.236 2.236 0 002.229 2.23 2.236 2.236 0 002.229-2.23zm-26.75 0a2.236 2.236 0 002.23 2.23 2.236 2.236 0 002.228-2.23 2.236 2.236 0 00-2.229-2.23 2.236 2.236 0 00-2.229 2.23z" fill="#fff"/></g><defs><clipPath id="clip0_1862_4093"><path fill="#fff" d="M0 0h53.5v53.5H0z"/></clipPath></defs></svg>