<svg width="54" height="54" fill="none" xmlns="http://www.w3.org/2000/svg"><path d="M48.342 25.558l-4.735 2.368-6.13-11.74 4.783-2.392a1.532 1.532 0 012.044.662l4.711 9.022a1.533 1.533 0 01-.673 2.08v0zM9.89 27.721l-4.734-2.367a1.533 1.533 0 01-.673-2.08l4.71-9.023a1.532 1.532 0 012.045-.661l4.783 2.391-6.13 11.74zm33.717.206l-3.065 3.586-7.05 7.049a1.533 1.533 0 01-1.455.403L20.934 36.19a1.533 1.533 0 01-.572-.28L9.891 27.723" stroke="#fff" stroke-width="3.344" stroke-linecap="round" stroke-linejoin="round"/><path d="M40.543 31.514l-8.429-6.13-2.452 1.839a6.13 6.13 0 01-7.356 0l-1.039-.78a1.534 1.534 0 01-.164-2.309l7.497-7.497a1.533 1.533 0 011.084-.449h7.794m-21.345-.208l9.831-2.865a1.532 1.532 0 011.06.075l6.623 2.996m-9.962 26.822l-5.774-1.444a1.532 1.532 0 01-.634-.33l-4.32-3.756" stroke="#fff" stroke-width="3.344" stroke-linecap="round" stroke-linejoin="round"/></svg>