<svg width="52" height="52" fill="none" xmlns="http://www.w3.org/2000/svg"><path fill-rule="evenodd" clip-rule="evenodd" d="M19.312 23.604a8.583 8.583 0 100-17.167 8.583 8.583 0 000 17.167zm0-4.291a4.292 4.292 0 100-8.584 4.292 4.292 0 000 8.584z" fill="#fff"/><path d="M27.895 30.042c1.185 0 2.146.96 2.146 2.145v12.876h4.292V32.187a6.438 6.438 0 00-6.438-6.437H10.73a6.438 6.438 0 00-6.438 6.438v12.874h4.292V32.188c0-1.186.96-2.146 2.146-2.146h17.166zm21.458-6.438H36.478v4.292h12.875v-4.292zm-10.729 8.584h10.73v4.291h-10.73v-4.291zM49.353 15.02h-15.02v4.293h15.02V15.02z" fill="#fff"/></svg>